<svg width="80" height="107" viewBox="0 0 80 107" fill="none" xmlns="http://www.w3.org/2000/svg">
<path d="M57.9164 24.8227C58.9988 25.1612 59.5329 25.7463 59.5188 26.5782C59.5144 26.8342 59.1207 27.4036 58.3375 28.2864C55.3297 32.0117 53.2021 34.7919 51.9547 36.627C50.7713 38.4631 49.3107 41.5427 47.5729 45.8657C45.899 50.1899 44.3559 54.3562 42.9435 58.3648C41.5962 62.3104 40.922 64.3152 40.9209 64.3792C38.1971 70.2217 34.5026 74.7995 29.8376 78.1126C25.1725 81.4257 20.3124 83.0393 15.2571 82.9532C11.6736 82.8922 8.77673 81.9788 6.56646 80.2129C4.42127 78.3842 3.37372 75.998 3.42382 73.0544C3.50223 68.4471 6.54967 64.2744 12.5662 60.5362C18.5826 56.798 24.5664 54.9796 30.5176 55.0809L30.8476 58.2549C26.096 59.1342 21.9706 60.8243 18.4716 63.3251C15.0365 65.827 13.2934 68.5817 13.2422 71.5893C13.2095 73.509 13.7267 75.086 14.7939 76.3204C15.925 77.5558 17.3545 78.1882 19.0822 78.2176C22.3458 78.2732 25.1869 76.8173 27.6058 73.85C30.0257 70.8188 32.5174 65.4524 35.0808 57.7509C37.7082 50.0505 40.0443 44.4254 42.089 40.8757C44.1977 37.3271 46.8085 34.3631 49.9214 31.9837C49.0266 31.9045 48.0353 31.8556 46.9475 31.8371C41.4443 31.7434 36.0544 32.5158 30.7777 34.1543C25.5651 35.7938 22.9342 38.0534 22.8852 40.9329C22.8547 42.7247 23.6258 44.434 25.1983 46.061L23.0425 48.6167C18.8063 45.5362 16.722 42.0122 16.7895 38.0448C16.8341 35.4212 17.9926 33.1686 20.265 31.287C22.6013 29.4064 25.6979 27.9869 29.5548 27.0284C36.9475 25.1699 45.2192 24.3186 54.3698 24.4743C56.3536 24.5081 57.5357 24.6242 57.9164 24.8227ZM79.0438 46.7854L78.1162 50.5141C77.0305 50.3676 75.6238 50.2797 73.8961 50.2503C67.497 50.1414 64.2615 52.1986 64.1896 56.422C64.1744 57.3179 65.4096 59.9633 67.8951 64.3582C70.4447 68.7542 71.707 71.6882 71.6819 73.1599C71.6231 76.6154 70.393 79.3149 67.9916 81.2583C65.6552 83.1388 62.5353 84.0459 58.6319 83.9794C53.2567 83.888 48.988 80.8389 45.8257 74.8322L49.5173 72.3027C50.4012 73.0218 51.3463 73.902 52.3528 74.9433C53.3603 75.9206 54.1167 76.6055 54.6221 76.9982C55.8194 78.1067 57.154 78.6735 58.6258 78.6986C60.0976 78.7236 61.3861 78.2335 62.4913 77.2281C63.5977 76.1588 64.164 74.8563 64.1901 73.3205C64.2173 71.7207 62.8596 68.7532 60.117 64.4179C57.4383 60.0837 56.1137 57.0527 56.1431 55.3249C56.1965 52.1894 57.5491 49.8121 60.2011 48.193C62.917 46.5749 66.4187 45.8024 70.706 45.8754C75.0574 45.9494 77.8367 46.2528 79.0438 46.7854Z" fill="url(#paint0_linear_31_4)"/>
<defs>
<linearGradient id="paint0_linear_31_4" x1="30.2826" y1="0.484959" x2="28.2406" y2="120.468" gradientUnits="userSpaceOnUse">
<stop stop-color="#3B82F6"/>
<stop offset="0.5" stop-color="#8B5CF6"/>
<stop offset="1" stop-color="#EC4899"/>
</linearGradient>
</defs>
</svg>
