<svg width="80" height="107" viewBox="0 0 80 107" fill="none" xmlns="http://www.w3.org/2000/svg">
<path d="M37.1263 39.107L36.584 70.9774L38.0369 71.0021C39.3492 71.0245 40.4049 71.4331 41.204 72.2281C42.0036 72.9918 42.3925 74.0142 42.3707 75.2952C42.3569 76.1076 42.1249 76.885 41.6747 77.6275C41.2562 78.3392 40.4279 79.2628 39.1897 80.3981L29.8543 89.0061C29.1563 89.6193 28.5239 90.0461 27.9573 90.2865C27.4213 90.5587 26.8565 90.6897 26.2628 90.6796C24.9193 90.6568 23.7868 90.1687 22.8654 89.2153C21.9747 88.2938 21.5405 87.1769 21.5628 85.8646C21.583 84.6772 22.1193 83.4674 23.1717 82.2352C24.2553 81.0034 24.8941 80.2017 25.0879 79.8299C25.5074 79.0557 25.8048 78.1075 25.9802 76.9853C26.1561 75.8319 26.2693 73.771 26.3198 70.8027L26.8917 37.1982C25.6472 36.8645 24.4795 36.6102 23.3886 36.4354C22.3294 36.2298 21.3312 36.1191 20.3938 36.1031C17.7379 36.0579 15.5523 36.8489 13.8368 38.4762C12.1219 40.0723 11.2432 42.1201 11.2007 44.6198C11.1762 46.0571 11.5 47.2346 12.1719 48.1524C12.8752 49.0708 13.7736 49.5393 14.8672 49.5579C15.4296 49.5675 16.2301 49.3623 17.2686 48.9424C18.3389 48.4918 19.2022 48.2721 19.8583 48.2833C21.1706 48.3056 22.2401 48.8239 23.0667 49.8381C23.9251 50.8216 24.3415 52.0632 24.316 53.563C24.2761 55.9064 23.4003 57.7824 21.6886 59.191C19.9774 60.5683 17.7314 61.2333 14.9506 61.186C10.9199 61.1174 7.58627 59.5761 4.94967 56.562C2.31361 53.5167 1.03466 49.6975 1.11283 45.1044C1.20748 39.5427 2.98561 35.1505 6.4472 31.9277C9.94057 28.6741 14.6399 27.0976 20.5453 27.1981C22.7638 27.2359 25.8504 27.6791 29.8053 28.5278C33.7607 29.3452 36.5664 29.768 38.2224 29.7962C39.7222 29.8217 40.9596 29.6552 41.9346 29.2968C42.9096 28.9383 43.7165 28.3582 44.3552 27.5565C44.5146 27.3717 44.7704 27.0322 45.1226 26.5381C46.4695 24.5295 48.0178 23.5401 49.7676 23.5699C51.2986 23.5959 52.5229 24.195 53.4406 25.367C54.3583 26.539 54.801 28.078 54.7685 29.984C54.7164 33.0461 53.6589 35.4972 51.5961 37.3373C49.565 39.1468 46.8466 40.0225 43.4408 39.9646C42.6284 39.9508 41.7234 39.8728 40.7256 39.7308C39.7279 39.5888 38.5281 39.3809 37.1263 39.107ZM72.9887 47.4997L75.1451 53.0216C75.2637 53.3986 75.3667 53.7755 75.454 54.152C75.5414 54.5285 75.5829 54.8418 75.5787 55.0918C75.5654 55.8729 75.2102 56.5388 74.5133 57.0895C73.8168 57.609 72.9999 57.8608 72.0626 57.8448C71.1252 57.8289 69.3618 56.7675 66.7722 54.6606C64.2145 52.523 62.0139 51.4385 60.1704 51.4072C59.233 51.3912 58.4948 51.613 57.9556 52.0727C57.4477 52.5329 57.1866 53.1848 57.1722 54.0284C57.1472 55.4969 58.8453 56.7291 62.2663 57.725C63.8842 58.1588 65.1591 58.54 66.0912 58.8684C69.509 60.0517 72.0303 61.5792 73.6549 63.4509C75.3113 65.2918 76.1169 67.5402 76.0717 70.1961C76.0196 73.2581 74.8824 75.8017 72.6601 77.8266C70.4384 79.8204 67.6715 80.7891 64.3595 80.7327C62.8909 80.7077 61.5972 80.5138 60.4782 80.1509C59.3587 79.8193 58.3054 79.2701 57.3183 78.5032C56.9263 79.4966 56.3665 80.2529 55.6388 80.7718C54.9424 81.2913 54.1098 81.5428 53.1412 81.5263C52.1414 81.5093 51.2869 81.2134 50.5778 80.6388C49.8688 80.0641 49.3358 79.2424 48.9789 78.1737L46.2945 70.627C46.1441 70.2806 46.0255 69.9035 45.9387 69.4957C45.8831 69.0885 45.8585 68.6974 45.8649 68.3224C45.8797 67.4476 46.2831 66.7043 47.0748 66.0927C47.8672 65.4498 48.8257 65.138 49.9506 65.1571C50.7317 65.1704 51.4164 65.3383 52.0048 65.6609C52.6249 65.9527 53.3337 66.543 54.1312 67.4317L54.2234 67.527C57.3831 71.0188 60.1035 72.7841 62.3844 72.8229C63.5093 72.8421 64.4199 72.5919 65.1163 72.0724C65.8128 71.553 66.1682 70.8714 66.1825 70.0278C66.2155 68.0906 64.195 66.5247 60.121 65.3302C58.8457 64.9647 57.8353 64.6506 57.0897 64.3879C53.9509 63.3343 51.6147 61.9506 50.0812 60.2368C48.5482 58.4917 47.8024 56.4005 47.8439 53.9634C47.8912 51.1826 48.9148 48.8871 50.9146 47.0772C52.9144 45.2672 55.4298 44.388 58.4606 44.4396C59.6791 44.4603 60.7857 44.6354 61.7802 44.9649C62.7748 45.2943 63.7351 45.7951 64.6613 46.4672C65.1778 45.5071 65.7521 44.8137 66.3845 44.3869C67.0168 43.9601 67.7705 43.7541 68.6453 43.769C69.7389 43.7876 70.5939 44.0522 71.2103 44.5628C71.858 45.0739 72.4508 46.0528 72.9887 47.4997Z" fill="#E5E7EB"/>
</svg>
